<?xml version="1.0" standalone="no"?>
<!DOCTYPE svg PUBLIC "-//W3C//DTD SVG 20010904//EN"
 "http://www.w3.org/TR/2001/REC-SVG-20010904/DTD/svg10.dtd">
<svg version="1.0" xmlns="http://www.w3.org/2000/svg"
 width="2000.000000pt" height="2000.000000pt" viewBox="0 0 2000.000000 2000.000000"
 preserveAspectRatio="xMidYMid meet">
<metadata>
Created by potrace 1.16, written by Peter Selinger 2001-2019
</metadata>
<g transform="translate(0.000000,2000.000000) scale(0.100000,-0.100000)"
fill="#000000" stroke="none">
<path d="M9515 19160 c-1719 -95 -3345 -646 -4730 -1603 -705 -486 -1354
-1086 -1901 -1753 -384 -469 -737 -1006 -1024 -1557 -78 -150 -90 -181 -79
-191 8 -7 644 -494 1414 -1083 770 -588 1459 -1115 1531 -1170 l131 -101 66
177 c222 596 517 1104 933 1606 138 167 492 521 659 659 863 716 1827 1121
2955 1243 234 25 814 25 1055 0 1019 -108 1948 -481 2741 -1101 l109 -85 1338
1337 1337 1337 -51 45 c-643 558 -1439 1070 -2219 1428 -989 454 -2018 716
-3150 803 -183 14 -917 20 -1115 9z"/>
<path d="M10000 9895 l0 -1765 2461 0 2461 0 -7 -32 c-50 -247 -162 -608 -265
-848 -310 -727 -813 -1338 -1473 -1788 l-118 -81 83 -65 c46 -36 702 -544
1458 -1130 l1375 -1065 240 242 c633 638 1120 1317 1525 2126 626 1252 955
2629 999 4185 19 679 -37 1260 -185 1919 l-16 67 -4269 0 -4269 0 0 -1765z"/>
</g>
</svg>
