<?xml version="1.0" encoding="UTF-8" standalone="no"?>
<!-- Created with Inkscape (http://www.inkscape.org/) -->

<svg
   width="89.474693mm"
   height="91.572746mm"
   viewBox="0 0 89.474693 91.572746"
   version="1.1"
   id="svg1"
   xml:space="preserve"
   xmlns:inkscape="http://www.inkscape.org/namespaces/inkscape"
   xmlns:sodipodi="http://sodipodi.sourceforge.net/DTD/sodipodi-0.dtd"
   xmlns="http://www.w3.org/2000/svg"
   xmlns:svg="http://www.w3.org/2000/svg"><defs
     id="defs1" /><g
     transform="translate(-67.171213,-102.71035)"><g
       id="g5"><path
         style="fill:#f9ba04"
         d="m 71.623878,168.34959 c -2.599551,-5.59015 -3.929073,-10.68763 -4.369326,-16.75231 -0.09867,-1.35928 -0.112812,-4.55991 -0.02582,-5.84488 0.423283,-6.25218 1.749626,-11.41284 4.395695,-17.10319 l 0.205906,-0.4428 0.18701,0.14166 c 1.281731,0.9709 15.092568,11.53719 15.143873,11.58616 0.05967,0.057 0.03991,0.16776 -0.134963,0.75687 -1.524151,5.13448 -1.518862,10.61286 0.01513,15.67365 0.09615,0.3172 0.174816,0.58706 0.174816,0.59969 0,0.0233 -1.05256,0.83236 -9.841379,7.56472 -2.706379,2.07312 -5.061292,3.88018 -5.233142,4.01568 l -0.312452,0.24636 z"
         id="path4" /><path
         style="fill:#4184f2"
         d="m 139.39549,180.2644 c -1.84089,-1.42869 -5.11825,-3.96915 -7.28302,-5.64545 l -3.93594,-3.04783 0.51394,-0.35308 c 1.81061,-1.24389 3.1126,-2.42105 4.43994,-4.01423 1.55594,-1.86756 2.88779,-4.31716 3.69132,-6.78925 0.20853,-0.64157 0.65044,-2.30523 0.65044,-2.44873 0,-0.0653 -1.46038,-0.0741 -12.26425,-0.0741 h -12.26426 v -8.86729 -8.86729 l 21.34059,0.0125 21.3406,0.0125 0.09,0.39965 c 0.32469,1.44144 0.6665,3.58112 0.81799,5.12051 0.162,1.6461 0.14827,4.86936 -0.0306,7.1937 -0.76304,9.91338 -4.02201,18.58326 -9.61453,25.57759 -0.36249,0.45336 -0.91466,1.11653 -1.22705,1.47371 -0.67634,0.77332 -2.78698,2.92411 -2.86404,2.91852 -0.0297,-0.002 -1.56023,-1.17286 -3.40111,-2.60156 z"
         id="path3" /><path
         style="fill:#e94234"
         d="m 79.510655,134.07803 -7.680571,-5.87604 0.407344,-0.77891 c 1.575575,-3.01282 3.24784,-5.54558 5.362917,-8.1225 1.597074,-1.9458 3.953327,-4.31098 6.00537,-6.02813 5.643281,-4.72228 12.560295,-8.06517 19.821285,-9.57935 5.65309,-1.17887 11.51812,-1.29902 17.09941,-0.35028 7.11595,1.20961 13.70818,4.03963 19.6434,8.43285 0.73836,0.54653 1.34772,1.02849 2.24058,1.77212 l 0.71691,0.59709 -6.65872,6.65885 c -3.66229,3.66237 -6.68169,6.64465 -6.70979,6.62729 -0.0281,-0.0174 -0.26128,-0.19589 -0.51819,-0.39671 -3.58087,-2.79916 -7.90938,-4.64903 -12.42533,-5.31018 -2.54298,-0.3723 -5.38979,-0.36356 -7.94304,0.0244 -4.51973,0.6868 -8.70042,2.45144 -12.31421,5.19774 -1.938121,1.47286 -3.816043,3.36093 -5.275459,5.30396 -1.640191,2.1837 -3.130415,4.99008 -3.913582,7.37001 -0.06103,0.18548 -0.125992,0.33645 -0.144358,0.3355 -0.01837,-9.4e-4 -3.489652,-2.64591 -7.713966,-5.87773 z"
         id="path2" /><path
         style="fill:#33a752"
         d="m 111.14524,194.26043 c -7.74035,-0.32316 -14.997796,-2.45324 -21.581093,-6.33411 -2.456955,-1.44839 -4.87434,-3.21355 -7.118763,-5.19809 -0.824688,-0.72919 -3.088046,-2.99472 -3.77629,-3.77991 -2.635949,-3.00725 -4.608851,-5.88204 -6.434189,-9.37552 l -0.409138,-0.78304 0.638901,-0.49391 c 2.712222,-2.09673 14.761229,-11.30971 14.773031,-11.29584 0.0082,0.01 0.06606,0.17488 0.128576,0.36722 0.765397,2.35469 2.269446,5.18994 3.916286,7.3825 1.075607,1.43203 2.736134,3.20696 4.026553,4.30397 5.313386,4.51698 11.914626,6.77509 18.932826,6.47643 1.48839,-0.0633 2.45037,-0.14966 3.69734,-0.33177 3.60763,-0.52687 6.86292,-1.63539 9.67746,-3.29545 l 0.56045,-0.33056 7.18277,5.55622 c 3.95052,3.05592 7.23532,5.60597 7.29955,5.66677 l 0.11679,0.11056 -0.50843,0.45634 c -7.16972,6.43526 -16.4802,10.23811 -26.55164,10.84499 -1.20403,0.0725 -3.47457,0.099 -4.57099,0.0532 z"
         id="path1" /></g></g></svg>
